<svg id="visual" viewBox="0 0 900 600" width="900" height="600" xmlns="http://www.w3.org/2000/svg" xmlns:xlink="http://www.w3.org/1999/xlink" version="1.1"><g fill="#f9f9f9"><circle r="66" cx="695" cy="400"></circle><circle r="5" cx="727" cy="271"></circle><circle r="8" cx="346" cy="82"></circle><circle r="41" cx="694" cy="69"></circle><circle r="14" cx="267" cy="566"></circle><circle r="47" cx="539" cy="291"></circle><circle r="16" cx="811" cy="7"></circle><circle r="7" cx="378" cy="260"></circle><circle r="35" cx="575" cy="127"></circle><circle r="54" cx="216" cy="277"></circle><circle r="59" cx="897" cy="120"></circle><circle r="55" cx="470" cy="436"></circle><circle r="10" cx="710" cy="589"></circle><circle r="8" cx="201" cy="427"></circle><circle r="25" cx="110" cy="533"></circle><circle r="42" cx="574" cy="527"></circle><circle r="59" cx="892" cy="510"></circle><circle r="43" cx="448" cy="572"></circle><circle r="42" cx="30" cy="117"></circle><circle r="36" cx="17" cy="283"></circle><circle r="57" cx="218" cy="43"></circle><circle r="21" cx="333" cy="391"></circle><circle r="62" cx="517" cy="1"></circle><circle r="25" cx="35" cy="414"></circle><circle r="41" cx="856" cy="317"></circle></g></svg>